# xmcd
#
# Track frame offsets:
#	150
#	12886
#	34644
#	56755
#	75714
#	97531
#	117265
#	141972
#	172647
#	190510
#	221941
#
# Disc length: 3282 seconds
#
# Revision: 0
# Processed by: cddbd v1.5.1PL2 Copyright (c) Steve Scherf et al.
# Submitted via: EasyCDDAExtractor 9.0.0.1
#
DISCID=830cd00b
DTITLE=New Riders of the Purple Sage - Capital Theatre Port Chester NY - 6-24-
DTITLE=1970
DYEAR=1970
DGENRE=Folk-Rock
TTITLE0=Tuning and Intro
TTITLE1=Working Man Blues
TTITLE2=Whatcha Gonna Do
TTITLE3=Live and Let Live
TTITLE4=If You Hear Me When I'm Leaving
TTITLE5=Henry
TTITLE6=Portland Woman
TTITLE7=Dirty Business
TTITLE8=Truck Drivin' Man
TTITLE9=Last Lonely Eagle
TTITLE10=Honky Tonk Woman
EXTD=
EXTT0=
EXTT1=
EXTT2=
EXTT3=
EXTT4=
EXTT5=
EXTT6=
EXTT7=
EXTT8=
EXTT9=
EXTT10=
PLAYORDER=
